<?xml version="1.0" encoding="utf-8"?>
<!-- Generator: Adobe Illustrator 21.1.0, SVG Export Plug-In . SVG Version: 6.00 Build 0)  -->
<svg version="1.1" id="Layer_1" xmlns="http://www.w3.org/2000/svg" xmlns:xlink="http://www.w3.org/1999/xlink" x="0px" y="0px"
	 viewBox="0 0 115 20" style="enable-background:new 0 0 115 20;" xml:space="preserve">
<style type="text/css">
	.st0{clip-path:url(#SVGID_2_);}
	.st1{fill:#555555;}
	.st2{fill:#007EC6;}
	.st3{fill:url(#SVGID_3_);}
	.st4{enable-background:new    ;}
	.st5{fill:#010101;}
	.st6{font-family:'DejaVuSans';}
	.st7{font-size:11px;}
	.st8{fill:#FFFFFF;}
</style>
<g>
	<defs>
		<path id="SVGID_1_" d="M3.1,0h108.7c1.7,0,3.1,1.3,3.1,3v14c0,1.7-1.4,3-3.1,3H3.1C1.4,20,0,18.7,0,17V3C0,1.3,1.4,0,3.1,0z"/>
	</defs>
	<clipPath id="SVGID_2_">
		<use xlink:href="#SVGID_1_"  style="overflow:visible;"/>
	</clipPath>
	<g class="st0">
		<path class="st1" d="M0,0h55.4v20H0V0z"/>
		<path class="st2" d="M55.4,0H115v20H55.4V0z"/>
		
			<linearGradient id="SVGID_3_" gradientUnits="userSpaceOnUse" x1="-247.2045" y1="387.75" x2="-247.2045" y2="386.75" gradientTransform="matrix(110 0 0 -20 27250 7755)">
			<stop  offset="0" style="stop-color:#BBBBBB;stop-opacity:0.1"/>
			<stop  offset="1" style="stop-color:#000000;stop-opacity:0.1"/>
		</linearGradient>
		<path class="st3" d="M0,0h115v20H0V0z"/>
	</g>
</g>
<g>
	<g class="st4">
		<text transform="matrix(1 0 0 1 5.5339 15)" class="st5 st6 st7">Built by</text>
	</g>
	<text transform="matrix(1 0 0 1 5.5339 14)" class="st8 st6 st7">Built by</text>
	<g id="tsouhaieb" class="st4">
		<text transform="matrix(1 0 0 1 58.3533 15)" class="st5 st6 st7">tsouhaieb</text>
	</g>
	<text transform="matrix(1 0 0 1 58.3533 14)" class="st8 st6 st7">tsouhaieb</text>
</g>
</svg>
